<svg xmlns="http://www.w3.org/2000/svg" viewBox="0 0 1400 1400" width="1400" height="1400"><defs><radialGradient id="g"><stop offset="0" stop-color="#cfe9ff" stop-opacity=".55"/><stop offset="1" stop-color="#cfe9ff" stop-opacity="0"/></radialGradient></defs><circle cx="1118.8" cy="456.3" r="0.74" fill="#9fd4ff" opacity="0.72"/><circle cx="666.7" cy="781.1" r="1.07" fill="#fff" opacity="0.22"/><circle cx="700.9" cy="1191.6" r="0.7" fill="#fff" opacity="0.85"/><circle cx="1138.7" cy="710.2" r="1.48" fill="#fff" opacity="0.24"/><circle cx="122.1" cy="1090.2" r="0.97" fill="#fff" opacity="0.25"/><circle cx="113.3" cy="280.2" r="1.0" fill="#fff" opacity="0.39"/><circle cx="106.8" cy="1175.3" r="1.85" fill="#fff" opacity="0.64"/><circle cx="1189.6" cy="132.9" r="0.89" fill="#fff" opacity="0.2"/><circle cx="753.2" cy="149.1" r="0.87" fill="#fff" opacity="0.67"/><circle cx="170.1" cy="1311.6" r="0.7" fill="#fff" opacity="0.74"/><circle cx="1051.5" cy="1324.2" r="0.96" fill="#fff" opacity="0.25"/><circle cx="1033.4" cy="1075.9" r="0.82" fill="#9fd4ff" opacity="0.84"/><circle cx="694.1" cy="55.2" r="0.8" fill="#9fd4ff" opacity="0.89"/><circle cx="1379.9" cy="1267.2" r="1.19" fill="#fff" opacity="0.19"/><circle cx="968.7" cy="133.3" r="0.77" fill="#fff" opacity="0.2"/><circle cx="1281.4" cy="1293.1" r="1.3" fill="#9fd4ff" opacity="0.49"/><circle cx="674.0" cy="1064.9" r="1.31" fill="#9fd4ff" opacity="0.18"/><circle cx="123.4" cy="1294.1" r="0.71" fill="#fff" opacity="0.36"/><circle cx="1237.3" cy="189.9" r="0.75" fill="#9fd4ff" opacity="0.67"/><circle cx="229.9" cy="35.1" r="1.78" fill="#fff" opacity="0.26"/><circle cx="530.8" cy="1374.2" r="1.23" fill="#fff" opacity="0.52"/><circle cx="374.9" cy="1174.9" r="0.71" fill="#fff" opacity="0.53"/><circle cx="386.8" cy="635.2" r="0.72" fill="#9fd4ff" opacity="0.51"/><circle cx="26.3" cy="197.9" r="0.7" fill="#fff" opacity="0.77"/><circle cx="950.2" cy="1090.7" r="0.72" fill="#fff" opacity="0.85"/><circle cx="644.3" cy="683.6" r="1.2" fill="#fff" opacity="0.66"/><circle cx="1159.6" cy="599.4" r="0.74" fill="#fff" opacity="0.76"/><circle cx="1201.2" cy="452.9" r="1.67" fill="#fff" opacity="0.67"/><circle cx="1056.8" cy="1399.7" r="0.9" fill="#fff" opacity="0.65"/><circle cx="734.2" cy="706.1" r="0.83" fill="#fff" opacity="0.76"/><circle cx="1045.2" cy="786.6" r="1.22" fill="#9fd4ff" opacity="0.3"/><circle cx="945.2" cy="203.1" r="0.8" fill="#9fd4ff" opacity="0.68"/><circle cx="1275.4" cy="824.4" r="1.0" fill="#9fd4ff" opacity="0.58"/><circle cx="31.0" cy="1008.8" r="1.03" fill="#fff" opacity="0.55"/><circle cx="379.3" cy="225.3" r="1.81" fill="#fff" opacity="0.19"/><circle cx="873.6" cy="1337.2" r="0.7" fill="#9fd4ff" opacity="0.6"/><circle cx="635.3" cy="868.2" r="1.51" fill="#fff" opacity="0.19"/><circle cx="208.4" cy="566.6" r="1.85" fill="#9fd4ff" opacity="0.74"/><circle cx="6.4" cy="44.1" r="1.36" fill="#fff" opacity="0.19"/><circle cx="1130.3" cy="1144.6" r="1.73" fill="#fff" opacity="0.54"/><circle cx="760.0" cy="935.8" r="0.7" fill="#fff" opacity="0.47"/><circle cx="543.4" cy="1000.7" r="0.72" fill="#fff" opacity="0.42"/><circle cx="1077.2" cy="451.5" r="0.89" fill="#fff" opacity="0.24"/><circle cx="1315.7" cy="541.3" r="1.14" fill="#fff" opacity="0.48"/><circle cx="974.9" cy="296.4" r="1.07" fill="#fff" opacity="0.89"/><circle cx="936.1" cy="475.4" r="1.12" fill="#fff" opacity="0.24"/><circle cx="1098.9" cy="298.5" r="0.8" fill="#9fd4ff" opacity="0.26"/><circle cx="938.2" cy="1163.8" r="0.96" fill="#fff" opacity="0.4"/><circle cx="335.0" cy="1319.3" r="0.91" fill="#fff" opacity="0.59"/><circle cx="242.3" cy="12.9" r="0.76" fill="#fff" opacity="0.38"/><circle cx="863.4" cy="967.8" r="1.57" fill="#fff" opacity="0.7"/><circle cx="1126.7" cy="758.6" r="0.9" fill="#fff" opacity="0.81"/><circle cx="540.3" cy="1214.3" r="0.86" fill="#9fd4ff" opacity="0.65"/><circle cx="832.6" cy="1325.5" r="0.87" fill="#fff" opacity="0.76"/><circle cx="28.6" cy="107.1" r="0.78" fill="#fff" opacity="0.87"/><circle cx="836.8" cy="1203.9" r="0.8" fill="#fff" opacity="0.22"/><circle cx="1271.3" cy="231.7" r="0.92" fill="#fff" opacity="0.29"/><circle cx="129.4" cy="1270.1" r="0.75" fill="#fff" opacity="0.68"/><circle cx="597.0" cy="34.2" r="1.04" fill="#fff" opacity="0.44"/><circle cx="280.6" cy="893.5" r="0.7" fill="#fff" opacity="0.83"/><circle cx="855.4" cy="594.2" r="0.7" fill="#fff" opacity="0.18"/><circle cx="681.2" cy="389.0" r="0.97" fill="#fff" opacity="0.77"/><circle cx="725.6" cy="818.0" r="1.57" fill="#fff" opacity="0.18"/><circle cx="806.9" cy="1002.8" r="0.72" fill="#fff" opacity="0.72"/><circle cx="388.3" cy="1327.3" r="0.7" fill="#9fd4ff" opacity="0.47"/><circle cx="264.0" cy="893.8" r="1.22" fill="#fff" opacity="0.42"/><circle cx="763.0" cy="627.8" r="0.82" fill="#fff" opacity="0.37"/><circle cx="517.7" cy="171.4" r="0.92" fill="#fff" opacity="0.29"/><circle cx="1337.7" cy="1043.5" r="0.78" fill="#fff" opacity="0.42"/><circle cx="320.7" cy="1119.2" r="0.7" fill="#fff" opacity="0.87"/><circle cx="1082.8" cy="840.7" r="1.51" fill="#9fd4ff" opacity="0.38"/><circle cx="288.3" cy="1044.5" r="1.85" fill="#fff" opacity="0.26"/><circle cx="1093.1" cy="426.8" r="0.74" fill="#9fd4ff" opacity="0.66"/><circle cx="466.9" cy="832.4" r="0.92" fill="#fff" opacity="0.85"/><circle cx="572.8" cy="262.3" r="1.44" fill="#9fd4ff" opacity="0.19"/><circle cx="511.7" cy="1126.7" r="0.75" fill="#9fd4ff" opacity="0.41"/><circle cx="391.7" cy="1315.4" r="1.53" fill="#fff" opacity="0.2"/><circle cx="655.9" cy="189.8" r="0.81" fill="#fff" opacity="0.86"/><circle cx="1067.0" cy="1310.6" r="1.67" fill="#fff" opacity="0.65"/><circle cx="160.5" cy="973.0" r="1.79" fill="#9fd4ff" opacity="0.45"/><circle cx="406.1" cy="618.8" r="0.84" fill="#fff" opacity="0.62"/><circle cx="9.3" cy="921.4" r="1.86" fill="#fff" opacity="0.42"/><circle cx="994.1" cy="939.6" r="1.39" fill="#fff" opacity="0.18"/><circle cx="610.0" cy="540.9" r="1.41" fill="#fff" opacity="0.21"/><circle cx="1136.8" cy="1167.9" r="1.68" fill="#fff" opacity="0.25"/><circle cx="1266.4" cy="760.9" r="1.18" fill="#fff" opacity="0.2"/><circle cx="36.1" cy="717.7" r="0.7" fill="#9fd4ff" opacity="0.3"/><circle cx="385.1" cy="180.5" r="1.18" fill="#fff" opacity="0.46"/><circle cx="1135.2" cy="993.6" r="1.06" fill="#fff" opacity="0.45"/><circle cx="604.5" cy="532.5" r="0.83" fill="#fff" opacity="0.18"/><circle cx="870.8" cy="549.7" r="0.86" fill="#9fd4ff" opacity="0.2"/><circle cx="1224.8" cy="1120.5" r="0.8" fill="#fff" opacity="0.81"/><circle cx="1048.2" cy="214.5" r="1.78" fill="#9fd4ff" opacity="0.4"/><circle cx="93.5" cy="88.5" r="0.7" fill="#fff" opacity="0.67"/><circle cx="375.4" cy="413.0" r="1.66" fill="#fff" opacity="0.26"/><circle cx="1153.0" cy="573.1" r="0.88" fill="#fff" opacity="0.36"/><circle cx="985.3" cy="950.1" r="1.88" fill="#fff" opacity="0.21"/><circle cx="740.5" cy="1107.5" r="1.88" fill="#9fd4ff" opacity="0.71"/><circle cx="1067.9" cy="304.9" r="0.86" fill="#9fd4ff" opacity="0.19"/><circle cx="600.5" cy="1229.4" r="0.76" fill="#fff" opacity="0.18"/><circle cx="390.9" cy="119.9" r="0.73" fill="#fff" opacity="0.78"/><circle cx="696.5" cy="666.3" r="1.19" fill="#fff" opacity="0.32"/><circle cx="1092.6" cy="933.4" r="1.6" fill="#fff" opacity="0.49"/><circle cx="1169.0" cy="331.8" r="1.11" fill="#fff" opacity="0.48"/><circle cx="307.7" cy="547.9" r="1.75" fill="#fff" opacity="0.18"/><circle cx="1329.7" cy="564.2" r="1.09" fill="#9fd4ff" opacity="0.3"/><circle cx="28.2" cy="1022.8" r="0.73" fill="#fff" opacity="0.44"/><circle cx="13.6" cy="549.3" r="0.89" fill="#fff" opacity="0.86"/><circle cx="1359.5" cy="561.2" r="1.5" fill="#9fd4ff" opacity="0.45"/><circle cx="1288.3" cy="962.2" r="1.02" fill="#9fd4ff" opacity="0.39"/><circle cx="1222.3" cy="76.3" r="0.71" fill="#fff" opacity="0.67"/><circle cx="473.3" cy="382.3" r="0.89" fill="#fff" opacity="0.68"/><circle cx="182.8" cy="771.1" r="0.8" fill="#9fd4ff" opacity="0.79"/><circle cx="586.1" cy="592.3" r="1.42" fill="#fff" opacity="0.24"/><circle cx="771.9" cy="1161.6" r="1.42" fill="#fff" opacity="0.44"/><circle cx="189.1" cy="1055.9" r="0.73" fill="#fff" opacity="0.48"/><circle cx="1326.6" cy="561.8" r="1.14" fill="#fff" opacity="0.44"/><circle cx="272.4" cy="1082.2" r="0.82" fill="#fff" opacity="0.55"/><circle cx="920.4" cy="1057.6" r="0.92" fill="#fff" opacity="0.41"/><circle cx="659.8" cy="54.0" r="0.77" fill="#9fd4ff" opacity="0.42"/><circle cx="137.4" cy="797.3" r="0.72" fill="#9fd4ff" opacity="0.84"/><circle cx="429.1" cy="131.0" r="0.82" fill="#fff" opacity="0.18"/><circle cx="193.5" cy="154.9" r="0.8" fill="#fff" opacity="0.21"/><circle cx="1317.3" cy="445.7" r="1.21" fill="#fff" opacity="0.56"/><circle cx="636.0" cy="617.0" r="1.13" fill="#9fd4ff" opacity="0.22"/><circle cx="147.9" cy="36.6" r="0.89" fill="#fff" opacity="0.2"/><circle cx="800.8" cy="336.5" r="1.17" fill="#fff" opacity="0.44"/><circle cx="736.2" cy="46.9" r="0.98" fill="#fff" opacity="0.23"/><circle cx="776.0" cy="738.8" r="0.73" fill="#9fd4ff" opacity="0.2"/><circle cx="489.4" cy="244.8" r="1.6" fill="#fff" opacity="0.3"/><circle cx="536.2" cy="515.4" r="0.72" fill="#fff" opacity="0.59"/><circle cx="794.3" cy="324.7" r="1.34" fill="#fff" opacity="0.18"/><circle cx="611.2" cy="268.0" r="1.84" fill="#fff" opacity="0.19"/><circle cx="924.2" cy="62.2" r="1.33" fill="#fff" opacity="0.18"/><circle cx="1225.9" cy="59.5" r="1.56" fill="#fff" opacity="0.23"/><circle cx="418.9" cy="912.3" r="1.1" fill="#fff" opacity="0.23"/><circle cx="685.0" cy="1277.0" r="0.9" fill="#fff" opacity="0.56"/><circle cx="948.6" cy="1191.0" r="0.82" fill="#9fd4ff" opacity="0.63"/><circle cx="287.8" cy="87.8" r="1.52" fill="#fff" opacity="0.23"/><circle cx="462.7" cy="392.0" r="0.71" fill="#fff" opacity="0.39"/><circle cx="740.4" cy="948.6" r="1.57" fill="#fff" opacity="0.46"/><circle cx="248.5" cy="527.1" r="0.77" fill="#9fd4ff" opacity="0.61"/><circle cx="662.7" cy="323.5" r="1.61" fill="#fff" opacity="0.23"/><circle cx="444.1" cy="837.5" r="0.7" fill="#fff" opacity="0.67"/><circle cx="555.1" cy="832.2" r="1.71" fill="#fff" opacity="0.48"/><circle cx="122.7" cy="229.7" r="0.72" fill="#9fd4ff" opacity="0.75"/><circle cx="1136.9" cy="466.9" r="1.34" fill="#fff" opacity="0.41"/><circle cx="543.0" cy="230.0" r="0.81" fill="#9fd4ff" opacity="0.51"/><circle cx="897.3" cy="1175.6" r="0.7" fill="#fff" opacity="0.88"/><circle cx="811.7" cy="1297.0" r="1.09" fill="#fff" opacity="0.84"/><circle cx="1248.1" cy="1078.6" r="10.3" fill="url(#g)" opacity=".5"/><circle cx="1248.1" cy="1078.6" r="2.06" fill="#fff"/><circle cx="328.7" cy="892.3" r="12.1" fill="url(#g)" opacity=".5"/><circle cx="328.7" cy="892.3" r="2.42" fill="#fff"/><circle cx="77.6" cy="1127.9" r="9.8" fill="url(#g)" opacity=".5"/><circle cx="77.6" cy="1127.9" r="1.96" fill="#fff"/><circle cx="291.7" cy="139.3" r="11.7" fill="url(#g)" opacity=".5"/><circle cx="291.7" cy="139.3" r="2.33" fill="#fff"/><circle cx="599.3" cy="52.9" r="8.8" fill="url(#g)" opacity=".5"/><circle cx="599.3" cy="52.9" r="1.76" fill="#fff"/><circle cx="65.8" cy="392.9" r="8.4" fill="url(#g)" opacity=".5"/><circle cx="65.8" cy="392.9" r="1.68" fill="#fff"/><circle cx="583.8" cy="111.7" r="7.5" fill="url(#g)" opacity=".5"/><circle cx="583.8" cy="111.7" r="1.51" fill="#fff"/><circle cx="942.1" cy="1318.5" r="11.4" fill="url(#g)" opacity=".5"/><circle cx="942.1" cy="1318.5" r="2.29" fill="#fff"/><circle cx="171.4" cy="1346.7" r="12.1" fill="url(#g)" opacity=".5"/><circle cx="171.4" cy="1346.7" r="2.42" fill="#fff"/><circle cx="1326.7" cy="539.2" r="10.4" fill="url(#g)" opacity=".5"/><circle cx="1326.7" cy="539.2" r="2.08" fill="#fff"/><circle cx="848.4" cy="1392.5" r="12.7" fill="url(#g)" opacity=".5"/><circle cx="848.4" cy="1392.5" r="2.54" fill="#fff"/><circle cx="454.4" cy="32.2" r="10.8" fill="url(#g)" opacity=".5"/><circle cx="454.4" cy="32.2" r="2.15" fill="#fff"/><circle cx="1053.3" cy="99.8" r="12.4" fill="url(#g)" opacity=".5"/><circle cx="1053.3" cy="99.8" r="2.48" fill="#fff"/><circle cx="116.9" cy="964.5" r="11.8" fill="url(#g)" opacity=".5"/><circle cx="116.9" cy="964.5" r="2.36" fill="#fff"/></svg>